<svg xmlns="http://www.w3.org/2000/svg" fill="none" viewBox="0 0 2204 822"><rect width="2204" height="822" fill="#D4C0FF" rx="100"/><path fill="#180F23" d="M1008 521c-23 0-41-4-56-12-14-8-25-19-32-33s-10-30-10-47v-36c0-18 3-33 10-47s17-25 32-33c14-8 33-12 55-12 14 0 27 1 37 5 11 3 20 7 26 13 6 5 10 11 10 17l-4 12c-1 4-4 8-8 11-3 3-7 5-11 5s-7-1-11-3l-13-6c-5-3-12-4-21-4-16 0-27 4-34 12-7 7-10 17-10 30v36c0 13 3 23 10 30 7 8 18 11 34 11 9 0 17-1 22-3l12-7a21 21 0 0 1 25 1l8 11 3 12c0 6-3 12-10 18-6 5-15 10-26 14-11 3-24 5-38 5Zm191 0c-17 0-33-4-48-13-15-8-27-20-36-34s-13-29-13-45v-37c0-16 4-31 13-45a97 97 0 0 1 84-46c18 0 34 4 49 12s27 19 35 33c9 14 14 29 14 46v37c0 16-5 31-14 45a104 104 0 0 1-84 47Zm0-51c7 0 14-2 20-6s11-9 14-15c4-7 6-13 6-20v-37c0-7-2-13-6-19-3-6-8-11-14-15s-12-7-20-7c-7 0-14 2-20 6s-11 9-14 16c-3 6-5 12-5 19v37c0 7 2 13 5 20 3 6 8 11 14 15s13 6 20 6Zm163 47c-8 0-15-2-20-6-6-4-8-8-8-13V321c0-5 2-9 8-13 5-3 12-5 20-5s14 2 18 5c6 4 8 8 8 13v19a77 77 0 0 1 33-34c7-3 14-5 22-5h14c6 0 11 2 15 7s7 11 7 18-3 13-7 18-9 7-15 7h-14c-8 0-16 3-24 9-8 5-15 13-20 23s-7 21-7 35v80c0 5-3 9-9 13s-13 6-21 6Zm239 5c-6 0-11-1-16-3s-9-4-10-7l-77-179-2-3v-5c0-4 2-8 6-12s10-7 16-9l16-3c4 0 7 0 10 2 4 1 6 4 7 7l50 131 50-130c2-4 4-6 7-8s6-2 10-2l15 3c6 2 12 5 17 9 4 4 7 8 7 13a17 17 0 0 1-2 7l-77 179c-2 3-5 5-10 7s-11 3-17 3Zm226-1a100 100 0 0 1-85-46c-9-14-13-29-13-45V322c0-5 3-9 9-13s12-6 20-6 15 2 20 6c6 4 9 8 9 13v108c0 7 2 13 5 19 4 6 9 11 15 15s12 6 20 6c7 0 14-2 19-6 6-4 11-9 15-15 3-6 5-13 5-19V321c0-5 3-9 9-12 6-4 13-6 20-6 9 0 16 2 21 6 6 3 8 7 8 12v109c0 16-4 31-13 45s-21 25-36 33c-14 9-31 13-48 13ZM768 240c-27-21-57-29-90-32-22-3-28-11-38-18-58-46-121-55-190-30-29 10-52 30-75 51-20 19-40 40-65 53-5 2-5 7 0 10 6 3 13 5 20 5 6 1 12 0 18 4l-10 13c-19 23-35 49-52 73-3 4-8 8-5 13 3 4 9 3 14 2l18-3c2-1 5-3 8-1v2l-6 42c-1 17 0 34 4 51 1 6 5 7 9 2 6-7 12-15 16-24 3-9 9-16 13-25 6 44 15 87 44 123 8-17 8-37 15-54 4 19 10 38 18 56 7 16 16 31 29 44 2 2 4 4 8 3 3-1 3-5 3-8v-26c0-4 0-7 3-11l16 24c21 30 43 59 57 92 2 6 5 6 9 2 12-13 17-28 22-43v-1c5-15 7-30 5-46l-1-21c19 11 35 25 51 38 16 14 29 30 43 46 4-7 5-13 5-19 0-42-11-81-29-118l-35-66c-7-14-12-29-10-45 2-23 16-38 35-48 24-12 49-15 75-17 28-2 56-1 83 9 4 1 7 0 7-5 1-39-11-72-42-97Z"/><circle cx="555" cy="263" r="30" fill="#D8D0F7"/><path fill="#D8D0F7" d="M664 236c77 0 108 35 116 52-53-10-119 1-145 6 0-1 24-58 29-58Z"/><path fill="#7250AE" d="M635 293c46-12 138-14 145-5 4 6 8 19 10 27 1 6-1 5-5 4-73-15-140 12-164 25 0-6 8-40 14-51Z"/></svg>
