<svg xmlns="http://www.w3.org/2000/svg" fill="none" viewBox="0 108 1611 496"><path fill="#E6E2FD" d="M674 466A113 113 0 0 1 618 454c-14.4-8.1-25-19-31.9-32.8a106 106 0 0 1-10.4-47.3v-36c0-17.4 3.4-33 10-46.8a76 76 0 0 1 31.9-33.3 113.6 113.6 0 0 1 55.3-12.1 128 128 0 0 1 37.4 4.9 70.9 70.9 0 0 1 25.6 13c6.4 5.4 9.5 11.1 9.5 17.1 0 3.6-1 7.7-3.1 12.2-1.9 4.2-4.5 8-8.1 11.3a16 16 0 0 1-11.8 4.9c-3.3 0-6.7-1-10.3-3.1a60.9 60.9 0 0 0-34.7-9.5c-15.3 0-26.4 3.7-33.3 11.2a41.8 41.8 0 0 0-10.3 30.2v36c0 12.9 3.5 23.1 10.4 30.6 6.9 7.2 18.1 10.8 33.7 10.8a52 52 0 0 0 21.6-3.6c5.1-2.4 9.3-4.7 12.6-6.8a21.3 21.3 0 0 1 24.3 1.4c3.9 3 6.8 6.8 8.5 11.3 2.1 4.1 3.2 8 3.2 11.6 0 6-3.3 11.9-9.9 17.6a71.1 71.1 0 0 1-26.5 14A122.3 122.3 0 0 1 674 466Zm191 0a95.4 95.4 0 0 1-48-12.6 104.9 104.9 0 0 1-35.6-34.1 83 83 0 0 1-13.5-45.5v-36.9c0-16.2 4.3-31.2 13-45a97.1 97.1 0 0 1 84.2-46.3c17.7 0 33.9 4.2 48.6 12.5 15 8.1 26.8 19.1 35.5 32.9a82.3 82.3 0 0 1 13.5 45.9v36.9c0 15.9-4.5 30.9-13.5 45-9 14.1-21 25.5-36 34.2a92.8 92.8 0 0 1-48.1 13Zm0-50.8c7.3 0 13.9-2 19.9-5.8a44 44 0 0 0 14.4-15.3 41.8 41.8 0 0 0 5.4-20.3v-36.9a37 37 0 0 0-5.4-19.3c-3.6-6-8.4-11-14.4-14.9a35.6 35.6 0 0 0-39.6-.4 44 44 0 0 0-14.4 15.3c-3.3 6-5 12.4-5 19.3v36.9c0 6.9 1.7 13.6 5 20.3a44 44 0 0 0 14.4 15.3c6 3.9 12.6 5.8 19.8 5.8Zm163 46.8c-8 0-14.8-2-20.2-5.9-5.4-3.9-8.1-8.2-8.1-13V266.2c0-5.3 2.7-9.7 8-13 5.5-3.3 12.2-5 20.3-5 7.5 0 13.7 1.7 18.5 5 5 3.3 7.6 7.7 7.6 13v18.5a76.6 76.6 0 0 1 32.4-33.3 47.5 47.5 0 0 1 23-5.8h14c5.6 0 10.6 2.5 14.8 7.6a25.7 25.7 0 0 1 6.3 17.6 28 28 0 0 1-6.3 18.4 19.2 19.2 0 0 1-14.9 7.2h-14c-8.3 0-16.6 2.9-24.7 8.6a61.3 61.3 0 0 0-19.3 22.9 74 74 0 0 0-7.7 35.1v80.1c0 4.8-2.8 9.1-8.5 13a36.6 36.6 0 0 1-21.2 5.9Zm239.4 5c-6 0-11.5-1-16.6-2.8-5.1-1.8-8.4-4.3-10-7.6L1164 278.4a20 20 0 0 1-1.8-3.6c-.3-1.8-.4-3.3-.4-4.5 0-4.5 2-8.6 6.3-12.2a48 48 0 0 1 15.7-9c6-2.3 11.6-3.5 16.7-3.5 3.6 0 6.9.7 9.9 2.2 3.3 1.5 5.5 4 6.7 7.6l50.4 130.5 50-129.5c1.2-4 3.3-6.6 6.3-8.1 3-1.9 6.4-2.8 10.3-2.8a42 42 0 0 1 14.9 3.7 52.4 52.4 0 0 1 16.6 9c4.8 3.9 7.2 8 7.2 12.6a16.7 16.7 0 0 1-1.8 7.6l-77.4 178.2c-1.5 3.3-4.8 5.8-9.9 7.6a48.3 48.3 0 0 1-16.2 2.8Zm225.7-1c-18 0-34.5-4.1-49.5-12.6-14.7-8.6-26.6-19.9-35.6-33.7a84.3 84.3 0 0 1-13-45v-108c0-4.5 2.8-8.7 8.5-12.6 6-3.9 13-5.8 20.7-5.8a35 35 0 0 1 20.3 5.8c5.7 3.9 8.5 8.1 8.5 12.6v108a37 37 0 0 0 5.4 19.4 50 50 0 0 0 14.4 15.3c6 3.9 12.6 5.8 19.8 5.8 7.5 0 14.1-2 19.8-5.8a44 44 0 0 0 14.4-15.3 38.6 38.6 0 0 0 5.4-19.4V266.3c0-4.9 2.9-9 8.6-12.7 6-3.5 12.7-5.3 20.2-5.3 8.7 0 15.8 1.8 21.2 5.3 5.4 3.7 8 7.8 8 12.7v108.4a83 83 0 0 1-13.4 45.4 97.4 97.4 0 0 1-35.6 33.3 95.4 95.4 0 0 1-48.1 12.7Z"/><mask id="a" width="497" height="497" x="-1" y="108" fill="#000" maskUnits="userSpaceOnUse"><path fill="#fff" d="M-1 108h497v497H-1z"/><path d="M427.2 218.6C406 201.5 381.5 195 355 192.5c-17.7-1.7-22.6-8.1-30.4-14.4-46.4-36.9-97.6-44.3-152.9-24-23.3 8.5-42.1 24.1-60 41-16.3 15.7-32.1 32-52.7 42.6-4 2-3.8 5.7.3 8 5 2.8 10.4 3.8 16 4.5 4.7.5 9.7 0 14.3 3.2l-8.2 10.2c-15 18.9-27.9 39.2-41.7 58.8-2.1 3-6.4 6.1-3.7 10 2.5 3.7 7.3 2.9 11.4 2.2 4.7-.8 9.4-2 14.1-3 2-.5 4-2 6.5-.1l-.1.8c-2 11.3-4 22.7-4.8 34.4-1 13.8.5 27.4 3.4 40.9 1 5 4 5.5 7.2 1.7 5-6 9.7-12 12.7-19.4 2.9-7 7-13.4 10.5-20.6 5 35.8 7.4 66.3 31 95.2 3.7 4.4 4.5 3.8 6-.8.8-2 5.4-26.2 10.5-38.6 3.4 15.5 8 30.4 14.2 44.8 5.8 13.1 13.4 25 23.2 35.3 1.8 1.8 3.8 3.9 6.6 2.8 2.8-1 2.7-4 2.7-6.5l.1-21c0-3 0-6 2.6-8.7l12.9 19.2c16.2 24 34 47.1 45.2 74.4 1.8 4.6 4.2 4.6 7.7 1 9.2-9.9 13.4-22.4 17.6-34.7v-.3c4.1-12 5-24.6 4-37.3-.6-5-.9-10-1.3-16.5 15.9 9 28.6 19.6 41.2 30.4 11.4 9.7 21 21.1 31 32.9 2.7 3.2 5 6.8 6.1.4.6-3 1.5-6.7 1.5-11.6.5-33.7-8.5-65.1-23.2-95-8.9-17.9-18.7-35.3-28-53a62.5 62.5 0 0 1-8.4-36.2c2-18 13-30.5 28.5-38.4 18.8-9.5 39.5-12.5 60.2-13.8a170 170 0 0 1 66.6 7c3.5 1.1 5.5.5 5.7-3.7.8-31.3-9-58.1-33.8-78Z"/></mask><path fill="#180F23" d="M427.2 218.6C406 201.5 381.5 195 355 192.5c-17.7-1.7-22.6-8.1-30.4-14.4-46.4-36.9-97.6-44.3-152.9-24-23.3 8.5-42.1 24.1-60 41-16.3 15.7-32.1 32-52.7 42.6-4 2-3.8 5.7.3 8 5 2.8 10.4 3.8 16 4.5 4.7.5 9.7 0 14.3 3.2l-8.2 10.2c-15 18.9-27.9 39.2-41.7 58.8-2.1 3-6.4 6.1-3.7 10 2.5 3.7 7.3 2.9 11.4 2.2 4.7-.8 9.4-2 14.1-3 2-.5 4-2 6.5-.1l-.1.8c-2 11.3-4 22.7-4.8 34.4-1 13.8.5 27.4 3.4 40.9 1 5 4 5.5 7.2 1.7 5-6 9.7-12 12.7-19.4 2.9-7 7-13.4 10.5-20.6 5 35.8 7.4 66.3 31 95.2 3.7 4.4 4.5 3.8 6-.8.8-2 5.4-26.2 10.5-38.6 3.4 15.5 8 30.4 14.2 44.8 5.8 13.1 13.4 25 23.2 35.3 1.8 1.8 3.8 3.9 6.6 2.8 2.8-1 2.7-4 2.7-6.5l.1-21c0-3 0-6 2.6-8.7l12.9 19.2c16.2 24 34 47.1 45.2 74.4 1.8 4.6 4.2 4.6 7.7 1 9.2-9.9 13.4-22.4 17.6-34.7v-.3c4.1-12 5-24.6 4-37.3-.6-5-.9-10-1.3-16.5 15.9 9 28.6 19.6 41.2 30.4 11.4 9.7 21 21.1 31 32.9 2.7 3.2 5 6.8 6.1.4.6-3 1.5-6.7 1.5-11.6.5-33.7-8.5-65.1-23.2-95-8.9-17.9-18.7-35.3-28-53a62.5 62.5 0 0 1-8.4-36.2c2-18 13-30.5 28.5-38.4 18.8-9.5 39.5-12.5 60.2-13.8a170 170 0 0 1 66.6 7c3.5 1.1 5.5.5 5.7-3.7.8-31.3-9-58.1-33.8-78Z"/><path fill="#E6E2FD" d="m354.9 192.5-3.4 34.8 3.4-34.8Zm72.3 26L405.3 246l22-27.3Zm33.8 78 35 1-35-1Zm-5.7 3.7 11.3-33.1-11.3 33.1Zm-66.6-7 2.3 35-2.3-35Zm-60.2 14-15.8-31.3 15.8 31.2ZM300 345.4l-34.8-3.9 34.8 3.9Zm8.4 36.3-31 16.2 31-16.2Zm28 53 31.3-15.6-31.3 15.5Zm23.2 94.9-35-.5 35 .5Zm-1.5 11.6-34.4-6.5 34.4 6.5ZM321 508l22.6-26.7L321 508Zm-41.2-30.4 17-30.5a35 35 0 0 0-52 33.1l35-2.6Zm1.2 16.5-34.8 3.2 34.8-3.2Zm-3.8 37.3L244 520.2l33.2 11.2Zm-.1.3 33.1 11.2-33.1-11.2Zm-17.6 34.7 25.5 23.9-25.5-24Zm-7.8-1-32.4 13.2 32.4-13.2ZM206.7 491l-29 19.5 29-19.5Zm-13-19.2 29-19.6a35 35 0 0 0-55-3.8l26 23.4Zm-2.5 8.7-35-.4 35 .4Zm0 0 35 .4-35-.3Zm0 21-35-.4 35 .4Zm-2.8 6.5-12.4-32.7 12.4 32.7Zm-6.6-2.8 25.4-24.1-25.4 24Zm-23.2-35.3 32-14-32 14Zm-14.2-44.8 34.2-7.6a35 35 0 0 0-66.6-5.8l32.4 13.4Zm-16.5 39.4 27.1-22.2-27 22.2Zm-31-95.2 34.7-4.9a35 35 0 0 0-66.2-10.2l31.5 15.1ZM86.3 390 54 376.7l32.4 13.2Zm-12.7 19.4L47 386.7l26.7 22.6Zm-7.2-1.7 34.2-7.3-34.2 7.3Zm-3.4-41 35 2.4-35-2.3Zm4.8-34.3 34.5 6.1-34.5-6Zm.1-.8 34.5 6a35 35 0 0 0-13.8-34.3l-20.7 28.3Zm-6.5 0-7.3-34.2 7.3 34.2Zm-14.1 3-6-34.4 6 34.5Zm-11.4-2 28.8-19.9L36 332.5Zm3.7-10-28.7-20.2 28.7 20.1Zm41.7-58.9 27.3 21.9-27.3-21.9Zm8.2-10.2 27.3 22a35 35 0 0 0-7-50.5l-20.3 28.5Zm-14.2-3.2 4-34.8-4 34.8Zm-16.1-4.5-17.3 30.5 17.3-30.5Zm-.3-8 16 31.1-16-31.1Zm52.8-42.5 24 25.3-24-25.3Zm60-41.2-12-32.9 12 33Zm152.8 24 22.1-27-.3-.3-21.8 27.4ZM352 541l26.6-22.7-26.6 22.7Zm-218.1-77.2-33-11.5 33 11.5Zm217.6-236.4c23.1 2.2 40 7.4 53.8 18.6l43.8-54.6c-28.7-23-60.8-30.8-90.8-33.7l-6.8 69.7Zm53.8 18.6c14.7 11.8 21.3 27.2 20.7 49.7l70 2c1-40-11.9-78.3-46.9-106.3l-43.8 54.6Zm20.7 49.7c0-.8.3-16.9 16.5-25.8a31.9 31.9 0 0 1 24-2.7L444 333.4c2.4.8 17 6.1 32.3-2.3a38.9 38.9 0 0 0 19.6-33.6l-70-1.9Zm40.6-28.5a204.6 204.6 0 0 0-80.2-8.8l4.6 69.9c20-1.3 37.4-.2 53 5.2l22.6-66.3Zm-80.2-8.8c-22 1.5-48.5 4.8-73.7 17.6l31.7 62.4c12.3-6.2 27.2-8.8 46.6-10.1l-4.6-69.9ZM312.7 276c-23.4 11.9-43.8 33.2-47.5 65.7l69.6 7.8a10 10 0 0 1 2-5.4c1.2-1.5 3.4-3.5 7.6-5.7L312.7 276Zm-47.5 65.7a97.2 97.2 0 0 0 12.3 56.4l62-32.5c-4.4-8.2-5-13-4.7-16.1l-69.6-7.8Zm12.3 56.4c10 19 18.8 34.8 27.5 52.2l62.7-31c-9-18.3-19.6-37.3-28.3-53.7l-62 32.5Zm27.5 52.2c12.9 26.1 20 52 19.6 79l70 1a241 241 0 0 0-26.9-111l-62.7 31Zm19.6 79c0 1.2 0 1.1-.9 5.6l68.8 13c.3-1.7 2-9 2.1-17.7l-70-.9Zm19-48c-12.4-10.4-27.4-23.3-46.8-34.1l-34.1 61c12.5 7 22.8 15.6 35.6 26.5l45.3-53.3Zm-98.7-1 1.3 17.1 69.7-6.4c-.5-4.6-.7-8.8-1.2-16l-69.8 5.3Zm1.3 17.1c.8 8.9 0 16.4-2.2 22.9l66.3 22.3c6-17.5 7-35 5.6-51.6l-69.7 6.4Zm-2.2 23-.1.3 66.3 22.3.1-.4-66.3-22.3Zm-.1.3c-4.6 13.5-6.8 18.4-10 21.8l51.1 47.9c15.3-16.3 21.5-36.3 25.2-47.4L244 520.6Zm-10 21.8c.3-.3 2-2.1 5.1-4a32.3 32.3 0 0 1 40.1 6c3.4 3.7 4.8 7 5 7.8l-64.8 26.4c1.4 3.2 9.5 23 32.3 25.2 10.7 1 19-2.6 23.5-5.4 4.6-2.8 8-6 10-8.1l-51.2-47.9Zm50.3 9.8c-13-31.7-34-59.3-48.6-80.8l-58 39.1c18 26.7 32.4 45.2 41.7 68l64.9-26.3Zm-48.6-80.8-13-19.2-58 39.2 13 19.1 58-39.1Zm-68-23c-12.2 13.7-11.4 29.6-11.5 31.7l70 .8c0-2.1.1 0-.4 2.7-.8 3.6-2.6 7.9-6 11.6l-52.1-46.8ZM156 480.1v.1l70 .7-70-.8Zm0 .1v20.9l70 .9v-21l-70-.8Zm0 20.9v.3a30.9 30.9 0 0 1 19.8-26.2l24.8 65.5A38.9 38.9 0 0 0 226 503v-1l-70-1Zm19.8-25.8a31 31 0 0 1 26 2c4.1 2.3 6.6 5.3 5.2 3.8l-50.7 48.2c.2.3 4.6 5.2 11 8.8a39 39 0 0 0 33.3 2.6l-24.8-65.4ZM207 481a86.3 86.3 0 0 1-16.5-25.3L126.5 484c7.2 16.4 17 31.8 29.9 45.3l50.7-48.2Zm-16.5-25.3c-5.2-11.8-9-24.5-12.1-38.3L110 432.6c3.8 17.2 9 34.4 16.4 51.4l64-28.2Zm-35.7-13.5c-16.2-19.7-18-39-23.4-77.9L62 374.2c4.7 32.8 7.5 74.5 38.7 112.5l54.1-44.4Zm-89.6-88.1-4.7 8.8c-2 3.5-4.5 8.3-6.7 13.7l64.8 26.5c.7-1.6 1.6-3.6 3.4-6.8 1.5-2.8 4-7.3 6.2-11.9l-63-30.3Zm-11.4 22.5c-.8 2-2.5 4.6-7 10l53.5 45.2c5.4-6.5 13.1-16 18.3-28.7l-64.8-26.5Zm-7 10c1-1.1 3.4-3.8 7.7-6.1a32.2 32.2 0 0 1 41.8 10.1c3 4.3 4 8 4.2 9.6l-68.4 14.6c1 4.9 6.5 25.8 29.2 31 22 5 35.9-10.4 39-14l-53.5-45.2Zm53.7 13.6A112.6 112.6 0 0 1 98 369l-69.8-4.7c-1.2 17.9.7 34.8 4 50.6l68.5-14.6ZM98 369c.6-9.4 2.3-19 4.4-30.6l-69-12.2c-2 11-4.3 24.3-5.2 38l69.8 4.8Zm4.4-30.6.1-.8-69-12.2v.8l68.9 12.2Zm-13.7-35.2a39.7 39.7 0 0 0-30.7-7c-3.4.7-6.1 1.7-6.5 1.8-1.2.4.6-.3 2.7-.7l14.7 68.4a42.9 42.9 0 0 0 5.6-1.6c.7-.2-1 .5-3.4.9a30.8 30.8 0 0 1-23.7-5.3l41.3-56.5Zm-34.5-6c-7.1 1.6-8.7 2.2-12.8 2.9l11.9 69c5.5-1 13.2-2.9 15.6-3.4L54 297.3Zm-12.8 2.9-1 .2c.2 0 1.5-.2 3.5 0 2 .1 5.6.7 9.6 2.6 4.4 2.2 8.4 5.5 11.3 9.7L7 352.3A41.4 41.4 0 0 0 38.2 370c7.2.6 13.8-.7 15-1l-11.9-69Zm23.4 12.5a30.7 30.7 0 0 1 1.1 32.7c-1 1.7-2 2.8-1.4 2l1.3-1.4 2.5-3.3-57.3-40.3c.7-1 1.4-1.8.1-.2-.6.8-3 3.4-5 6.8a39.3 39.3 0 0 0 1 43.3l57.7-39.6Zm3.5 30c15.2-21.6 26.2-39.3 40.4-57.1L54 241.8c-15.8 19.8-30.5 42.8-43 60.5l57.3 40.3Zm40.4-57.1 8.2-10.1-54.5-44-8.4 10.4 54.7 43.7Zm1.2-60.6c-8.3-6-16.7-8-22.6-8.8-2.7-.4-5-.5-6.3-.6l-1.7-.1-7.9 69.5 3.3.3 2 .2h1c.2 0 .1 0 0 0a21 21 0 0 1-8.3-3.5l40.5-57Zm-30.6-9.5a52.5 52.5 0 0 1-3.7-.6l1 .5-34.6 60.9c11.4 6.4 22.9 8 29.4 8.7l8-69.5Zm-2.8-.1a30 30 0 0 1 14.6 25 30.7 30.7 0 0 1-16 28.5l-32-62.2a39.3 39.3 0 0 0-22 36.3c.7 18.3 13.2 29 21 33.3l34.4-61ZM75 268.8c26.1-13.4 46.2-34.3 60.9-48.3l-48.3-50.7C69.4 187 58 198.8 43 206.6l32 62.2Zm60.9-48.3c17.1-16.3 31.6-27.7 47.9-33.6l-24-65.8c-30.5 11.2-53.6 31.1-72.2 48.7l48.3 50.7Zm47.9-33.6c44.2-16.2 82.5-10.5 119 18.6l43.6-54.8C290 106 226 96.8 159.6 121l24 65.8Zm118.8 18.4c.5.4 8.3 7.5 15.8 11.9a78.8 78.8 0 0 0 33.2 10.1l6.8-69.7c-2.5-.2-3.8-.5-4.3-.7h-.3l-1.4-1.1-2.2-2-3.5-2.9-44.1 54.4Zm21.2 329.5a31.3 31.3 0 0 1 6.1-12.5 33.9 33.9 0 0 1 48.5-4.1l2 1.9c0 .1 0 .2-.3-.3l-1.4-1.6-53.3 45.4.7.7 1.7 2c.4.5 5 6.2 12.7 9.9a36.2 36.2 0 0 0 43.9-9.8c6.3-7.9 7.8-16.6 8.2-18.7l-68.8-12.9Zm55-16.6c-9.5-11.1-21-25-35-37l-45.4 53.4c8.9 7.5 16.5 16.6 27 29l53.3-45.4ZM111.8 411.7a207 207 0 0 0-8.5 28.4l-2.5 10.9-.7 3.1c-.4 1.7 0 0 .6-1.9l66.1 23c.9-2.5 1.5-5.2 1.5-5.3l.8-3.7 2.3-9.8c1.9-7.9 3.8-14.6 5.2-18l-64.8-26.6Zm-11 40.5c-.5 1.2 0-.6 1.3-3 .7-1 7-12.8 22.4-16 15.7-3.2 26.2 5.5 27.5 6.5 2.3 1.9 3.5 3.5 2.8 2.6l-54.1 44.4c1 1.4 3.7 4.5 7.3 7.4 2.5 2 14 11 30.5 7.7a36.8 36.8 0 0 0 24.7-18.2c2-3.7 3.2-7.3 3.6-8.4l-66-23Z" mask="url(#a)"/><circle cx="256" cy="237.1" r="24.1" fill="#D8D0F7"/><path fill="#D8D0F7" d="M343.8 215.2c61.5 0 86.9 28.4 92.7 42-41.9-8-95.2.4-116.2 4.8 0-1.1 19.5-46.8 23.5-46.8Z"/><path fill="#7250AE" d="M320.6 261.1c36.6-9.9 110.6-10.9 115.9-4 3.7 5 6.4 15.5 8 21.8 1.1 4.4-.8 3.9-4 3.2-58.2-12-112 9.4-131.8 20.1 0-5.2 6.6-32.1 11.9-41Z"/></svg>
