<svg xmlns="http://www.w3.org/2000/svg" fill="none" viewBox="0 0 1680 621"><path fill="#180F23" d="M742.95 466.05c-22.8 0-41.4-4.05-55.8-12.15-14.4-8.1-25.05-19.05-31.95-32.85-6.9-14.1-10.35-29.85-10.35-47.25v-36c0-17.4 3.3-33 9.9-46.8 6.9-14.1 17.55-25.2 31.95-33.3 14.7-8.1 33.15-12.15 55.35-12.15 14.1 0 26.55 1.65 37.35 4.95 10.8 3.3 19.35 7.65 25.65 13.05 6.3 5.4 9.45 11.1 9.45 17.1 0 3.6-1.05 7.65-3.15 12.15-1.8 4.2-4.5 7.95-8.1 11.25-3.3 3.3-7.2 4.95-11.7 4.95-3.3 0-6.75-1.05-10.35-3.15-3.3-2.1-7.65-4.2-13.05-6.3-5.4-2.1-12.6-3.15-21.6-3.15-15.3 0-26.4 3.75-33.3 11.25-6.9 7.2-10.35 17.25-10.35 30.15v36c0 12.9 3.45 23.1 10.35 30.6 6.9 7.2 18.15 10.8 33.75 10.8 9.3 0 16.5-1.2 21.6-3.6 5.1-2.4 9.3-4.65 12.6-6.75 3.6-2.1 7.2-3.15 10.8-3.15 5.4 0 9.9 1.5 13.5 4.5 3.9 3 6.75 6.75 8.55 11.25 2.1 4.2 3.15 8.1 3.15 11.7 0 6-3.3 11.85-9.9 17.55-6.3 5.7-15.15 10.35-26.55 13.95-11.1 3.6-23.7 5.4-37.8 5.4Zm191.13 0c-17.4 0-33.45-4.2-48.15-12.6-14.7-8.7-26.55-20.1-35.55-34.2-9-14.1-13.5-29.25-13.5-45.45v-36.9c0-16.2 4.35-31.2 13.05-45 8.7-14.1 20.4-25.35 35.1-33.75 15-8.4 31.35-12.6 49.05-12.6 17.7 0 33.9 4.2 48.6 12.6 15 8.1 26.85 19.05 35.55 32.85 9 13.8 13.5 29.1 13.5 45.9v36.9c0 15.9-4.5 30.9-13.5 45-9 14.1-21 25.5-36 34.2-14.7 8.7-30.75 13.05-48.15 13.05Zm0-50.85c7.2 0 13.8-1.95 19.8-5.85 6-3.9 10.8-9 14.4-15.3 3.6-6.6 5.4-13.35 5.4-20.25v-36.9c0-6.9-1.8-13.35-5.4-19.35-3.6-6-8.4-10.95-14.4-14.85-5.7-4.2-12.3-6.3-19.8-6.3-7.2 0-13.8 1.95-19.8 5.85-6 3.9-10.8 9-14.4 15.3-3.3 6-4.95 12.45-4.95 19.35v36.9c0 6.9 1.65 13.65 4.95 20.25 3.6 6.3 8.4 11.4 14.4 15.3 6 3.9 12.6 5.85 19.8 5.85Zm162.93 46.8c-8.1 0-14.85-1.95-20.25-5.85-5.4-3.9-8.1-8.25-8.1-13.05V266.25c0-5.4 2.7-9.75 8.1-13.05 5.4-3.3 12.15-4.95 20.25-4.95 7.5 0 13.65 1.65 18.45 4.95 5.1 3.3 7.65 7.65 7.65 13.05v18.45c3.3-6.6 7.65-12.75 13.05-18.45 5.7-6 12.15-10.95 19.35-14.85 7.2-3.9 14.85-5.85 22.95-5.85h13.95c5.7 0 10.65 2.55 14.85 7.65 4.2 4.8 6.3 10.65 6.3 17.55 0 7.2-2.1 13.35-6.3 18.45-4.2 4.8-9.15 7.2-14.85 7.2h-13.95c-8.4 0-16.65 2.85-24.75 8.55-7.8 5.4-14.25 13.05-19.35 22.95-5.1 9.6-7.65 21.3-7.65 35.1v80.1c0 4.8-2.85 9.15-8.55 13.05-5.7 3.9-12.75 5.85-21.15 5.85Zm239.4 4.95c-6 0-11.55-.9-16.65-2.7-5.1-1.8-8.4-4.35-9.9-7.65l-76.95-178.2c-.6-.9-1.2-2.1-1.8-3.6-.3-1.8-.45-3.3-.45-4.5 0-4.5 2.1-8.55 6.3-12.15 4.5-3.9 9.75-6.9 15.75-9 6-2.4 11.55-3.6 16.65-3.6 3.6 0 6.9.75 9.9 2.25 3.3 1.5 5.55 4.05 6.75 7.65l50.4 130.5 49.95-129.6c1.2-3.9 3.3-6.6 6.3-8.1 3-1.8 6.45-2.7 10.35-2.7 3.9 0 8.85 1.2 14.85 3.6 6.3 2.1 11.85 5.1 16.65 9 4.8 3.9 7.2 8.1 7.2 12.6 0 1.5-.15 2.85-.45 4.05-.3 1.2-.75 2.4-1.35 3.6l-77.4 178.2c-1.5 3.3-4.8 5.85-9.9 7.65-5.1 1.8-10.5 2.7-16.2 2.7Zm225.68-.9c-18 0-34.5-4.2-49.5-12.6-14.7-8.7-26.55-19.95-35.55-33.75-8.7-14.1-13.05-29.1-13.05-45v-108c0-4.5 2.85-8.7 8.55-12.6 6-3.9 12.9-5.85 20.7-5.85 7.8 0 14.55 1.95 20.25 5.85 5.7 3.9 8.55 8.1 8.55 12.6v108c0 6.9 1.8 13.35 5.4 19.35 3.6 6 8.4 11.1 14.4 15.3 6 3.9 12.6 5.85 19.8 5.85 7.5 0 14.1-1.95 19.8-5.85 6-3.9 10.8-9 14.4-15.3 3.6-6.3 5.4-12.75 5.4-19.35V266.25c0-4.8 2.85-9 8.55-12.6 6-3.6 12.75-5.4 20.25-5.4 8.7 0 15.75 1.8 21.15 5.4 5.4 3.6 8.1 7.8 8.1 12.6V374.7c0 16.2-4.5 31.35-13.5 45.45-8.7 13.8-20.55 24.9-35.55 33.3-14.7 8.4-30.75 12.6-48.15 12.6ZM487.987 185.012c-26.513-21.256-56.916-29.284-89.987-32.474-22-2.122-28.135-10.055-37.775-17.881-57.76-45.862-121.422-55.139-190.223-29.958-29.086 10.645-52.454 30.116-74.62 51.191-20.418 19.411-40.078 39.793-65.617 52.924-4.946 2.543-4.736 7.137.318 9.997 6.153 3.482 13.007 4.708 20.028 5.509 5.723.652 11.93-.057 17.7 4.053-3.686 4.572-6.988 8.632-10.251 12.721-18.676 23.403-34.67 48.713-51.893 73.149-2.611 3.703-7.944 7.593-4.595 12.47 3.098 4.51 9.167 3.505 14.169 2.643 5.923-1.021 11.756-2.562 17.64-3.82 2.463-.527 4.87-2.443 8.11-.077l-.189 1.07c-2.48 14.005-5.002 28.257-5.981 42.728-1.165 17.214.66 34.151 4.242 50.912 1.313 6.139 4.963 6.891 8.988 2.127 6.223-7.365 12.047-14.959 15.781-24.081 3.576-8.733 8.767-16.715 13.056-25.626C83.174 417.123 86.06 455.079 115.5 491c4.5 5.491 5.5 4.749 7.5-1 .87-2.5 6.62-32.66 12.961-48.079 4.264 19.286 9.865 37.889 17.743 55.815 7.159 16.29 16.588 31.008 28.851 43.88 2.142 2.249 4.651 4.808 8.139 3.485 3.569-1.353 3.394-4.953 3.435-8.045.116-8.684.025-17.37.114-26.055l.001-.107c.037-3.652.075-7.385 3.15-10.817 5.621 8.318 10.867 16.067 16.098 23.826 20.198 29.962 42.378 58.708 56.174 92.579 2.362 5.8 5.335 5.803 9.622 1.226 11.487-12.261 16.703-27.768 21.861-43.1l.145-.431c5.021-14.925 6.227-30.554 4.778-46.317-.575-6.26-.957-12.538-1.559-20.567 19.814 11.081 35.57 24.43 51.288 37.777 14.202 12.059 26.163 26.347 38.583 40.93 3.407 4 6.116 8.5 7.616.5.707-3.771 1.794-8.261 1.875-14.427.548-41.867-10.558-80.991-28.943-118.148-11.007-22.245-23.176-43.912-34.73-65.888-7.415-14.103-12.28-29.089-10.49-45.1 2.517-22.502 16.114-37.887 35.489-47.75 23.355-11.889 49.082-15.556 74.83-17.226 27.97-1.814 55.89-.531 82.836 8.651 4.387 1.495 6.93.737 7.072-4.549 1.038-38.868-11.025-72.255-41.952-97.051Z"/><circle cx="275" cy="208.047" r="30" fill="#D8D0F7"/><path fill="#D8D0F7" d="M384.236 180.774c76.449-.001 108.028 35.402 115.264 52.292-52.1-9.845-118.45.452-144.5 6.002 0-1.448 24.171-58.294 29.236-58.294Z"/><path fill="#7250AE" d="M355.292 237.961c45.586-12.306 137.695-13.58 144.208-4.894 4.624 6.167 8.044 19.182 10 27.01 1.375 5.502-1 4.834-5 4.002-72.361-15.057-139.397 11.723-164 24.994 0-6.518 8.225-39.994 14.792-51.112Z"/></svg>
