<svg xmlns="http://www.w3.org/2000/svg" fill="none" viewBox="0 0 1680 621"><path fill="#E6E2FD" d="M742.95 466.05c-22.8 0-41.4-4.05-55.8-12.15-14.4-8.1-25.05-19.05-31.95-32.85-6.9-14.1-10.35-29.85-10.35-47.25v-36c0-17.4 3.3-33 9.9-46.8 6.9-14.1 17.55-25.2 31.95-33.3 14.7-8.1 33.15-12.15 55.35-12.15 14.1 0 26.55 1.65 37.35 4.95 10.8 3.3 19.35 7.65 25.65 13.05 6.3 5.4 9.45 11.1 9.45 17.1 0 3.6-1.05 7.65-3.15 12.15-1.8 4.2-4.5 7.95-8.1 11.25-3.3 3.3-7.2 4.95-11.7 4.95-3.3 0-6.75-1.05-10.35-3.15-3.3-2.1-7.65-4.2-13.05-6.3-5.4-2.1-12.6-3.15-21.6-3.15-15.3 0-26.4 3.75-33.3 11.25-6.9 7.2-10.35 17.25-10.35 30.15v36c0 12.9 3.45 23.1 10.35 30.6 6.9 7.2 18.15 10.8 33.75 10.8 9.3 0 16.5-1.2 21.6-3.6 5.1-2.4 9.3-4.65 12.6-6.75 3.6-2.1 7.2-3.15 10.8-3.15 5.4 0 9.9 1.5 13.5 4.5 3.9 3 6.75 6.75 8.55 11.25 2.1 4.2 3.15 8.1 3.15 11.7 0 6-3.3 11.85-9.9 17.55-6.3 5.7-15.15 10.35-26.55 13.95-11.1 3.6-23.7 5.4-37.8 5.4Zm191.13 0c-17.4 0-33.45-4.2-48.15-12.6-14.7-8.7-26.55-20.1-35.55-34.2-9-14.1-13.5-29.25-13.5-45.45v-36.9c0-16.2 4.35-31.2 13.05-45 8.7-14.1 20.4-25.35 35.1-33.75 15-8.4 31.35-12.6 49.05-12.6 17.7 0 33.9 4.2 48.6 12.6 15 8.1 26.85 19.05 35.55 32.85 9 13.8 13.5 29.1 13.5 45.9v36.9c0 15.9-4.5 30.9-13.5 45-9 14.1-21 25.5-36 34.2-14.7 8.7-30.75 13.05-48.15 13.05Zm0-50.85c7.2 0 13.8-1.95 19.8-5.85 6-3.9 10.8-9 14.4-15.3 3.6-6.6 5.4-13.35 5.4-20.25v-36.9c0-6.9-1.8-13.35-5.4-19.35-3.6-6-8.4-10.95-14.4-14.85-5.7-4.2-12.3-6.3-19.8-6.3-7.2 0-13.8 1.95-19.8 5.85-6 3.9-10.8 9-14.4 15.3-3.3 6-4.95 12.45-4.95 19.35v36.9c0 6.9 1.65 13.65 4.95 20.25 3.6 6.3 8.4 11.4 14.4 15.3 6 3.9 12.6 5.85 19.8 5.85Zm162.93 46.8c-8.1 0-14.85-1.95-20.25-5.85-5.4-3.9-8.1-8.25-8.1-13.05V266.25c0-5.4 2.7-9.75 8.1-13.05 5.4-3.3 12.15-4.95 20.25-4.95 7.5 0 13.65 1.65 18.45 4.95 5.1 3.3 7.65 7.65 7.65 13.05v18.45c3.3-6.6 7.65-12.75 13.05-18.45 5.7-6 12.15-10.95 19.35-14.85 7.2-3.9 14.85-5.85 22.95-5.85h13.95c5.7 0 10.65 2.55 14.85 7.65 4.2 4.8 6.3 10.65 6.3 17.55 0 7.2-2.1 13.35-6.3 18.45-4.2 4.8-9.15 7.2-14.85 7.2h-13.95c-8.4 0-16.65 2.85-24.75 8.55-7.8 5.4-14.25 13.05-19.35 22.95-5.1 9.6-7.65 21.3-7.65 35.1v80.1c0 4.8-2.85 9.15-8.55 13.05-5.7 3.9-12.75 5.85-21.15 5.85Zm239.4 4.95c-6 0-11.55-.9-16.65-2.7-5.1-1.8-8.4-4.35-9.9-7.65l-76.95-178.2c-.6-.9-1.2-2.1-1.8-3.6-.3-1.8-.45-3.3-.45-4.5 0-4.5 2.1-8.55 6.3-12.15 4.5-3.9 9.75-6.9 15.75-9 6-2.4 11.55-3.6 16.65-3.6 3.6 0 6.9.75 9.9 2.25 3.3 1.5 5.55 4.05 6.75 7.65l50.4 130.5 49.95-129.6c1.2-3.9 3.3-6.6 6.3-8.1 3-1.8 6.45-2.7 10.35-2.7 3.9 0 8.85 1.2 14.85 3.6 6.3 2.1 11.85 5.1 16.65 9 4.8 3.9 7.2 8.1 7.2 12.6 0 1.5-.15 2.85-.45 4.05-.3 1.2-.75 2.4-1.35 3.6l-77.4 178.2c-1.5 3.3-4.8 5.85-9.9 7.65-5.1 1.8-10.5 2.7-16.2 2.7Zm225.68-.9c-18 0-34.5-4.2-49.5-12.6-14.7-8.7-26.55-19.95-35.55-33.75-8.7-14.1-13.05-29.1-13.05-45v-108c0-4.5 2.85-8.7 8.55-12.6 6-3.9 12.9-5.85 20.7-5.85 7.8 0 14.55 1.95 20.25 5.85 5.7 3.9 8.55 8.1 8.55 12.6v108c0 6.9 1.8 13.35 5.4 19.35 3.6 6 8.4 11.1 14.4 15.3 6 3.9 12.6 5.85 19.8 5.85 7.5 0 14.1-1.95 19.8-5.85 6-3.9 10.8-9 14.4-15.3 3.6-6.3 5.4-12.75 5.4-19.35V266.25c0-4.8 2.85-9 8.55-12.6 6-3.6 12.75-5.4 20.25-5.4 8.7 0 15.75 1.8 21.15 5.4 5.4 3.6 8.1 7.8 8.1 12.6V374.7c0 16.2-4.5 31.35-13.5 45.45-8.7 13.8-20.55 24.9-35.55 33.3-14.7 8.4-30.75 12.6-48.15 12.6Z"/><mask id="a" width="531" height="531" x="-1" y="91" fill="#000" maskUnits="userSpaceOnUse"><path fill="#fff" d="M-1 91h531v531H-1z"/><path d="M462.743 204.37c-23.511-18.851-50.473-25.97-79.8-28.798-19.509-1.882-24.949-8.917-33.498-15.857-51.221-40.67-107.676-48.897-168.688-26.567-25.793 9.44-46.516 26.706-66.173 45.396-18.106 17.214-35.541 35.288-58.188 46.933-4.386 2.255-4.2 6.328.282 8.865 5.456 3.088 11.534 4.175 17.76 4.885 5.075.579 10.58-.051 15.697 3.595-3.27 4.054-6.197 7.654-9.091 11.28-16.562 20.754-30.745 43.199-46.019 64.868-2.315 3.284-7.045 6.734-4.074 11.059 2.747 3.999 8.13 3.107 12.564 2.343 5.253-.905 10.426-2.271 15.644-3.387 2.184-.467 4.318-2.167 7.192-.068l-.168.948c-2.199 12.42-4.436 25.059-5.304 37.891-1.033 15.265.585 30.285 3.762 45.148 1.164 5.445 4.401 6.111 7.97 1.887 5.519-6.531 10.683-13.266 13.995-21.355 3.17-7.745 7.774-14.823 11.578-22.725 5.574 39.492 8.133 73.151 34.241 105.006 3.99 4.869 4.877 4.211 6.65-.887.772-2.217 5.871-28.962 11.494-42.636 3.781 17.103 8.748 33.6 15.734 49.496 6.349 14.447 14.71 27.498 25.586 38.913 1.899 1.994 4.124 4.263 7.217 3.091 3.165-1.2 3.01-4.393 3.046-7.135.103-7.701.022-15.404.101-23.105l.001-.095c.033-3.239.066-6.549 2.793-9.593 4.985 7.377 9.637 14.249 14.276 21.129 17.912 26.57 37.581 52.062 49.815 82.099 2.094 5.143 4.731 5.145 8.533 1.087 10.186-10.874 14.812-24.625 19.385-38.221l.129-.382c4.453-13.236 5.522-27.096 4.237-41.074-.51-5.551-.849-11.119-1.382-18.238 17.57 9.826 31.543 21.664 45.482 33.5 12.594 10.693 23.2 23.364 34.215 36.296 3.021 3.547 5.423 7.538 6.754.444.627-3.344 1.591-7.327 1.662-12.794.487-37.128-9.363-71.823-25.666-104.773-9.761-19.726-20.552-38.941-30.798-58.429-6.576-12.506-10.89-25.796-9.302-39.994 2.231-19.955 14.289-33.598 31.471-42.345 20.711-10.542 43.525-13.795 66.358-15.276 24.804-1.608 49.563-.47 73.458 7.672 3.891 1.326 6.146.654 6.271-4.034.922-34.468-9.776-64.075-37.202-86.063Z"/></mask><path fill="#180F23" d="M462.743 204.37c-23.511-18.851-50.473-25.97-79.8-28.798-19.509-1.882-24.949-8.917-33.498-15.857-51.221-40.67-107.676-48.897-168.688-26.567-25.793 9.44-46.516 26.706-66.173 45.396-18.106 17.214-35.541 35.288-58.188 46.933-4.386 2.255-4.2 6.328.282 8.865 5.456 3.088 11.534 4.175 17.76 4.885 5.075.579 10.58-.051 15.697 3.595-3.27 4.054-6.197 7.654-9.091 11.28-16.562 20.754-30.745 43.199-46.019 64.868-2.315 3.284-7.045 6.734-4.074 11.059 2.747 3.999 8.13 3.107 12.564 2.343 5.253-.905 10.426-2.271 15.644-3.387 2.184-.467 4.318-2.167 7.192-.068l-.168.948c-2.199 12.42-4.436 25.059-5.304 37.891-1.033 15.265.585 30.285 3.762 45.148 1.164 5.445 4.401 6.111 7.97 1.887 5.519-6.531 10.683-13.266 13.995-21.355 3.17-7.745 7.774-14.823 11.578-22.725 5.574 39.492 8.133 73.151 34.241 105.006 3.99 4.869 4.877 4.211 6.65-.887.772-2.217 5.871-28.962 11.494-42.636 3.781 17.103 8.748 33.6 15.734 49.496 6.349 14.447 14.71 27.498 25.586 38.913 1.899 1.994 4.124 4.263 7.217 3.091 3.165-1.2 3.01-4.393 3.046-7.135.103-7.701.022-15.404.101-23.105l.001-.095c.033-3.239.066-6.549 2.793-9.593 4.985 7.377 9.637 14.249 14.276 21.129 17.912 26.57 37.581 52.062 49.815 82.099 2.094 5.143 4.731 5.145 8.533 1.087 10.186-10.874 14.812-24.625 19.385-38.221l.129-.382c4.453-13.236 5.522-27.096 4.237-41.074-.51-5.551-.849-11.119-1.382-18.238 17.57 9.826 31.543 21.664 45.482 33.5 12.594 10.693 23.2 23.364 34.215 36.296 3.021 3.547 5.423 7.538 6.754.444.627-3.344 1.591-7.327 1.662-12.794.487-37.128-9.363-71.823-25.666-104.773-9.761-19.726-20.552-38.941-30.798-58.429-6.576-12.506-10.89-25.796-9.302-39.994 2.231-19.955 14.289-33.598 31.471-42.345 20.711-10.542 43.525-13.795 66.358-15.276 24.804-1.608 49.563-.47 73.458 7.672 3.891 1.326 6.146.654 6.271-4.034.922-34.468-9.776-64.075-37.202-86.063Z"/><path fill="#E6E2FD" d="m382.943 175.572 2.881-29.862-2.881 29.862Zm79.8 28.798-18.766 23.406 18.766-23.406Zm37.202 86.063 29.99.802-29.99-.802Zm-6.271 4.034 9.676-28.397-9.676 28.397Zm-73.458-7.672-1.942-29.937 1.942 29.937Zm-66.358 15.276-13.61-26.735 13.61 26.735Zm-31.471 42.345 29.814 3.334-29.814-3.334Zm9.302 39.994-26.554 13.961 26.554-13.961Zm30.798 58.429 26.888-13.304-26.888 13.304Zm25.666 104.773-29.997-.393v.001l29.997.392Zm-1.662 12.794-29.487-5.529 29.487 5.529Zm-40.969-36.74 19.418-22.868-19.418 22.868Zm-45.482-33.5 14.642-26.184-48.733-27.254 4.174 55.681 29.917-2.243Zm1.382 18.238-29.874 2.745v.001l29.874-2.746Zm-4.237 41.074-28.434-9.567-.001.003 28.435 9.564Zm-.129.382 28.435 9.565v-.001l-28.435-9.564Zm-19.385 38.221-21.894-20.51 21.894 20.51Zm-8.533-1.087-27.784 11.316 27.784-11.316Zm-49.815-82.099 24.875-16.769-24.875 16.769Zm-14.276-21.129 24.858-16.796-21.535-31.871-25.667 28.649 22.344 20.018Zm-2.793 9.593-29.998-.305v.002l29.998.303Zm-.001.095 29.998.307.001-.004-29.999-.303Zm-.101 23.105-29.997-.399 29.997.399Zm-3.046 7.135-10.635-28.052h-.001l10.636 28.052Zm-7.217-3.091-21.721 20.693 21.721-20.693Zm-25.586-38.913 27.465-12.07-27.465 12.07Zm-15.734-49.496 29.293-6.476-20.654-93.41-36.384 88.477 27.745 11.409Zm-18.144 43.523 23.202-19.017-23.202 19.017ZM98.184 370.711l29.705-4.193-13.826-97.957-42.91 89.138 27.03 13.012Zm-11.578 22.725 27.764 11.366-27.764-11.366Zm-13.995 21.355-22.915-19.362 22.915 19.362Zm-7.97-1.887 29.338-6.27-29.338 6.27Zm-3.762-45.148 29.931 2.025-29.931-2.025Zm5.304-37.891 29.54 5.23v-.001l-29.54-5.229Zm.168-.948 29.54 5.229 3.262-18.427-15.114-11.033-17.688 24.231Zm-7.192.068-6.274-29.337 6.274 29.337Zm-15.644 3.387-5.094-29.564 5.094 29.564Zm-12.564-2.343 24.729-16.985-24.73 16.985Zm4.074-11.059-24.52-17.284h-.001l24.521 17.284Zm46.019-64.868 23.449 18.713-23.45-18.713Zm9.09-11.28 23.355 18.829 19.985-24.787-25.932-18.476-17.407 24.434Zm-15.696-3.595 3.398-29.807-3.398 29.807Zm-17.76-4.885 14.776-26.109-14.776 26.109Zm-.282-8.865 13.718 26.68v-.001l-13.718-26.679Zm58.188-46.933 20.671 21.741-20.671-21.741Zm66.173-45.396-10.311-28.172 10.311 28.172Zm168.688 26.567 18.908-23.291-.126-.102-.127-.102-18.655 23.495Zm30.292 400.247-22.839 19.453 22.839-19.453ZM139.075 474.83l28.335 9.858-28.335-9.858Zm240.988-269.397c26.331 2.54 46.751 8.582 63.914 22.343l37.532-46.812c-29.86-23.941-63.363-32.136-95.685-35.254l-5.761 59.723Zm63.914 22.343c18.719 15.007 26.701 34.837 25.979 61.856l59.979 1.603c1.12-41.918-12.293-81.302-48.426-110.271l-37.532 46.812Zm25.979 61.856c.006-.227.144-13.673 13.771-21.193 6.012-3.318 11.579-3.513 14.527-3.319 2.862.189 4.752.833 5.096.95l-19.351 56.794c2.493.849 15.409 5.451 28.717-1.893 15.759-8.696 17.087-24.822 17.219-29.736l-59.979-1.603Zm33.394-23.562c-29.09-9.912-58.242-10.952-85.076-9.212l3.884 59.874c22.774-1.477 43.139-.24 61.841 6.132l19.351-56.794Zm-85.076-9.212c-23.943 1.553-51.744 5.099-78.026 18.478l27.219 53.471c15.14-7.707 32.968-10.666 54.691-12.075l-3.884-59.874Zm-78.026 18.478c-23.827 12.129-44.059 33.398-47.676 65.746l59.629 6.668c.845-7.561 4.73-13.58 15.266-18.943l-27.219-53.471Zm-47.676 65.746c-2.52 22.537 4.568 42.082 12.563 57.289l53.107-27.922c-5.155-9.805-6.697-16.839-6.041-22.699l-59.629-6.668Zm12.563 57.289c10.807 20.554 20.878 38.4 30.463 57.773l53.777-26.609c-9.936-20.081-21.447-40.664-31.133-59.086l-53.107 27.922Zm30.463 57.773c14.702 29.711 22.969 59.712 22.558 91.075l59.995.786c.562-42.893-10.87-82.282-28.776-118.47l-53.777 26.609Zm22.558 91.076c-.029 2.224-.293 3.076-1.152 7.657l58.973 11.057c.395-2.106 2.06-9.219 2.174-17.929l-59.995-.785Zm6.784-46.422c-13.743-11.67-29.787-25.368-50.258-36.816l-29.285 52.367c14.671 8.205 26.572 18.183 40.707 30.185l38.836-45.736Zm-94.817-8.389c.492 6.558.886 12.871 1.425 18.74l59.749-5.49c-.481-5.234-.766-10.056-1.341-17.736l-59.833 4.486Zm1.425 18.741c.982 10.678.074 20.228-2.797 28.761l56.868 19.133c6.035-17.938 7.265-36.107 5.678-53.385l-59.749 5.491Zm-2.798 28.764-.128.382 56.869 19.128.129-.383-56.87-19.127Zm-.128.381c-4.917 14.618-7.835 21.927-12.845 27.276l43.788 41.02c15.361-16.398 21.696-36.592 25.926-49.166l-56.869-19.13Zm-12.845 27.276c.016-.018 1.294-1.432 3.784-2.93 2.52-1.516 8.256-4.278 16.115-3.511 8.423.821 14.224 5.17 17.324 8.573 2.716 2.983 3.77 5.602 3.921 5.974l-55.567 22.633c1.363 3.348 8.568 20.593 28.498 22.536 9.256.903 16.494-2.298 20.644-4.795 4.118-2.478 7.152-5.414 9.069-7.46l-43.788-41.02Zm41.144 8.106c-13.767-33.802-36.286-63.169-52.723-87.551l-49.75 33.539c19.386 28.757 36.206 50.374 46.906 76.645l55.567-22.633Zm-52.723-87.551c-4.65-6.898-9.329-13.81-14.293-21.156l-49.715 33.592c5.006 7.408 9.63 14.239 14.258 21.103l49.75-33.539Zm-61.495-24.378c-11.076 12.363-10.421 26.724-10.447 29.306l59.996.609c.01-.937.017-.976.011-.887-.011.184-.067.988-.318 2.134a19.485 19.485 0 0 1-1.547 4.399 19.824 19.824 0 0 1-3.006 4.475l-44.689-40.036Zm-10.447 29.308-.001.095 59.997.606v-.095l-59.996-.606Zm-.001.091c-.1 9.723.018 14.181-.1 23.013l59.995.799c.087-6.57.043-17.519.101-23.198l-59.996-.614Zm-.1 23.013c-.018 1.389-.01.958 0 .795.02-.359.12-2.06.759-4.341.679-2.425 2.097-5.981 5.071-9.505 3.097-3.669 6.862-6.093 10.486-7.467l21.27 56.103c5.205-1.973 10.139-5.247 14.097-9.938 3.837-4.546 5.812-9.296 6.852-13.011 1.001-3.572 1.267-6.661 1.367-8.427.054-.94.072-1.757.08-2.301.005-.275.007-.53.009-.707l.004-.402-59.995-.799Zm16.315-20.518a25.486 25.486 0 0 1 11.967-1.452c4.143.487 7.342 1.875 9.423 3.056 3.309 1.879 5.218 4.205 3.75 2.664l-43.442 41.386c.431.453 4.402 4.911 10.071 8.129 7.35 4.172 18.027 6.671 29.502 2.32l-21.271-56.103Zm25.14 4.268c-8.231-8.639-14.743-18.688-19.842-30.29l-54.93 24.14c7.599 17.291 17.81 33.345 31.33 47.536l43.442-41.386Zm-19.842-30.29c-6.014-13.686-10.44-28.226-13.906-43.902l-58.585 12.953c4.096 18.528 9.604 36.982 17.561 55.089l54.93-24.14Zm-38.141-12.92c-19.695-24.031-21.796-48.087-27.738-90.182l-59.41 8.386c5.206 36.89 8.224 80.152 40.743 119.829l46.405-38.033Zm-84.474-99.001c-1.49 3.094-3.068 5.897-5.36 10.119-2.086 3.842-4.704 8.764-6.95 14.253l55.527 22.731c.923-2.256 2.193-4.746 4.152-8.355 1.753-3.228 4.378-7.915 6.693-12.723l-54.062-26.025Zm-12.31 24.372c-1.442 3.521-4.016 7.286-9.147 13.358l45.83 38.725c5.907-6.991 13.662-16.695 18.844-29.352l-55.528-22.731Zm-9.147 13.358c.607-.719 2.522-2.857 6.03-4.759 3.684-1.997 10.402-4.329 18.661-2.447 8.396 1.912 13.614 7.087 16.226 10.895 2.421 3.529 3.157 6.539 3.366 7.516l-58.675 12.541c1.029 4.815 5.943 23.036 25.757 27.549 19.108 4.353 31.43-8.98 34.465-12.57l-45.83-38.725Zm44.283 11.205c-2.754-12.882-3.968-25.035-3.169-36.853l-59.863-4.05c-1.266 18.713.756 36.599 4.357 53.444l58.675-12.541Zm-3.169-36.853c.741-10.953 2.67-22.008 4.914-34.686l-59.082-10.459c-2.153 12.161-4.7 26.384-5.695 41.095l59.863 4.05Zm4.914-34.687.168-.948-59.082-10.458-.168.948 59.082 10.458Zm-11.685-30.408c-3.817-2.787-8.444-5.042-13.798-6.12a34.676 34.676 0 0 0-13.33-.053c-3.045.577-5.555 1.491-5.974 1.637-1.129.393.277-.144 1.948-.502l12.55 58.673a38.713 38.713 0 0 0 3.659-.978c.743-.237 1.476-.497 1.57-.529.684-.238-.703.294-2.583.65a25.34 25.34 0 0 1-9.678-.077c-4.078-.821-7.36-2.502-9.74-4.24l35.376-48.461Zm-31.155-5.038c-7.266 1.555-9.813 2.359-14.463 3.16l10.189 59.128c5.856-1.009 13.654-2.937 16.824-3.615l-12.55-58.673Zm-14.463 3.16c-.564.097-.91.156-1.215.203-.14.022-.24.036-.312.046l-.1.013.133-.012c.084-.006.218-.015.394-.021a15.23 15.23 0 0 1 1.699.047c1.48.12 4.278.536 7.548 2.126a23.646 23.646 0 0 1 9.112 7.834L6.222 347.013c8.16 11.88 20.143 15.243 27.958 15.876 6.679.54 12.938-.696 14.43-.953l-10.19-59.128Zm17.259 10.236c2.69 3.918 4.668 9.45 4.27 15.778-.354 5.619-2.443 9.443-3.297 10.85-.803 1.324-1.488 2.044-.77 1.196.138-.163 2.095-2.39 3.663-4.615l-49.042-34.567c.41-.582.908-1.147-.4.397-.726.857-2.841 3.325-4.745 6.463-1.955 3.221-4.814 8.923-5.291 16.508-.522 8.293 1.978 15.879 6.154 21.959l49.458-33.969Zm3.866 23.21c16.477-23.377 29.083-43.561 44.947-63.439L57.595 235.39c-17.26 21.629-33.021 46.335-47.09 66.296l49.04 34.568Zm44.947-63.439c2.835-3.553 5.617-6.972 8.996-11.164l-46.71-37.659c-3.157 3.917-6.231 7.698-9.184 11.398l46.898 37.425Zm3.049-54.427c-7.737-5.512-15.484-7.437-21.116-8.224-2.606-.365-4.974-.509-6.3-.589-1.68-.102-2.008-.123-2.29-.155l-6.797 59.614a75.98 75.98 0 0 0 3.223.291c.834.058 1.726.109 2.236.14.612.037.982.063 1.277.087.278.024.369.037.34.033-.062-.008-.78-.111-1.835-.482a14.47 14.47 0 0 1-3.553-1.848l34.815-48.867Zm-29.706-8.968c-2.596-.296-4.17-.567-5.276-.844-1.014-.254-1.248-.423-1.106-.343l-29.553 52.218c10.991 6.22 22.169 7.788 29.138 8.583l6.797-59.614Zm-6.382-1.187c2.653 1.502 11.273 7.654 11.738 20.486.508 14.041-9.075 21.379-13.078 23.438l-27.436-53.36c-8.39 4.313-20.072 14.816-19.447 32.092.581 16.067 11.536 25.524 18.67 29.562l29.553-52.218Zm-1.34 43.923c27.438-14.108 48.542-36.089 65.141-51.871l-41.342-43.483c-19.614 18.647-33.379 32.813-51.236 41.995l27.437 53.359Zm65.141-51.871c19.071-18.131 36.088-31.746 55.813-38.965l-20.622-56.344c-31.862 11.661-56.29 32.579-76.533 51.826l41.342 43.483Zm55.813-38.965c51.495-18.846 96.925-12.092 139.722 21.89l37.31-46.99c-59.646-47.359-127.125-57.058-197.654-31.244l20.622 56.344Zm139.469 21.686c1.415 1.149 8.892 8.016 16.343 12.396 9.242 5.433 19.838 8.744 33.183 10.031l5.761-59.723c-6.164-.594-8.043-1.742-8.536-2.032-.524-.308-1.249-.804-2.649-1.959-.751-.62-1.497-1.261-2.592-2.199a181.573 181.573 0 0 0-3.694-3.096l-37.816 46.582Zm26.467 371.871c.009-.047.171-.941.652-2.302.408-1.155 1.588-4.238 4.317-7.612a28.756 28.756 0 0 1 16.877-10.095 28.723 28.723 0 0 1 17.974 2.306c3.319 1.608 5.431 3.457 6.168 4.124.876.793 1.391 1.388 1.406 1.405.039.044-.015-.015-.384-.465-.271-.329-.847-1.034-1.438-1.728l-45.678 38.905c.165.193.324.388.769.928.345.42.985 1.199 1.694 2.005.497.565 4.662 5.607 11.311 8.827 4.04 1.956 11.04 4.257 19.609 2.594 8.867-1.721 14.879-6.792 18.344-11.076 5.553-6.866 6.94-14.561 7.352-16.759l-58.973-11.057Zm45.572-14.367c-10.568-12.407-22.82-27.132-37.636-39.712l-38.836 45.736c10.372 8.806 19.333 19.424 30.794 32.881l45.678-38.905ZM122.824 420.785c-3.801 9.241-6.937 21.425-8.998 30.046a743.532 743.532 0 0 0-2.705 11.813 502.904 502.904 0 0 1-.79 3.523c-.379 1.637-.151.419.41-1.194l56.669 19.715c.754-2.168 1.309-4.706 1.38-5.01.259-1.121.576-2.548.901-4.01a692.452 692.452 0 0 1 2.489-10.882c2.087-8.725 4.312-16.749 6.135-21.182l-55.491-22.819Zm-12.083 44.187c-.456 1.313-.098.008.957-1.869.445-.791 5.77-10.798 18.86-13.481 13.359-2.738 22.264 4.641 23.202 5.399 1.862 1.506 2.676 2.666 1.867 1.679l-46.405 38.033c1.187 1.449 3.607 4.352 6.813 6.945 2.283 1.845 12.269 9.653 26.569 6.722 14.033-2.875 20.162-13.699 21.396-15.895 1.845-3.282 2.98-6.581 3.41-7.817l-56.669-19.716Z" mask="url(#a)"/><circle cx="273.868" cy="224.796" r="26.604" fill="#D8D0F7"/><path fill="#D8D0F7" d="M370.738 200.611c67.794-.001 95.798 31.394 102.215 46.372-46.202-8.73-105.041.401-128.141 5.323 0-1.284 21.434-51.695 25.926-51.695Z"/><path fill="#7250AE" d="M345.07 251.325c40.426-10.913 122.107-12.044 127.883-4.341 4.1 5.47 7.133 17.011 8.868 23.953 1.219 4.879-.887 4.286-4.434 3.548-64.169-13.352-123.617 10.396-145.434 22.165 0-5.78 7.293-35.467 13.117-45.325Z"/></svg>
