<svg xmlns="http://www.w3.org/2000/svg" fill="none" viewBox="0 0 690 690"><rect width="690" height="690" fill="#D4C0FF" rx="100"/><path fill="#180F23" d="M568 174c-26.5-21.2-57-29.3-90-32.5-22-2-28.1-10-37.8-17.8-57.7-45.9-121.4-55.2-190.2-30-29 10.6-52.5 30.1-74.6 51.2-20.4 19.4-40.1 39.8-65.6 53-5 2.5-4.8 7 .3 10 6.1 3.4 13 4.6 20 5.4 5.7.7 12 0 17.7 4l-10.2 12.8c-18.7 23.4-34.7 48.7-52 73.1-2.5 3.7-7.9 7.6-4.5 12.5 3 4.5 9.1 3.5 14.1 2.7 6-1 11.8-2.6 17.7-3.9 2.4-.5 4.8-2.4 8 0l-.1 1c-2.5 14-5 28.3-6 42.8-1.1 17.2.7 34.1 4.3 50.9 1.3 6.1 5 6.9 9 2.1 6.2-7.4 12-15 15.7-24 3.6-8.8 8.8-16.8 13-25.7 6.4 44.5 14.8 87.7 44.3 123.6 7.7-17.6 7.7-36.8 14.9-54.3 4.2 19.3 9.8 38 17.7 55.8 7.2 16.3 16.6 31 28.9 44 2.1 2.2 4.6 4.7 8 3.4 3.7-1.4 3.5-5 3.5-8l.1-26.1v-.1c0-3.7.1-7.4 3.2-10.8 5.6 8.3 10.9 16 16 23.8 20.3 30 42.5 58.7 56.3 92.6 2.3 5.8 5.3 5.8 9.6 1.2 11.5-12.3 16.7-27.8 21.8-43l.2-.5c5-15 6.2-30.6 4.8-46.3-.6-6.3-1-12.6-1.6-20.6 19.8 11 35.6 24.4 51.3 37.8 16 13.5 29 29.8 43 46.2 4.6-6.8 5-13 5-19.2.6-41.9-10.5-81-28.9-118.2-11-22.2-23.1-43.9-34.7-65.9a77.8 77.8 0 0 1-10.5-45c2.5-22.6 16.1-38 35.5-47.8 23.4-11.9 49-15.6 74.8-17.2 28-1.9 56-.6 82.9 8.6 4.4 1.5 6.9.7 7-4.5 1-39-11-72.3-42-97Z"/><circle cx="355" cy="197" r="30" fill="#D8D0F7"/><path fill="#D8D0F7" d="M464.2 169.8c76.5 0 108 35.4 115.3 52.3-52.1-9.9-118.4.4-144.5 6 0-1.5 24.2-58.3 29.2-58.3Z"/><path fill="#7250AE" d="M435.3 227c45.6-12.3 137.7-13.6 144.2-5 4.6 6.2 8 19.2 10 27 1.4 5.6-1 5-5 4-72.4-15-139.4 11.8-164 25 0-6.4 8.2-40 14.8-51Z"/></svg>
