<svg xmlns="http://www.w3.org/2000/svg" fill="none" viewBox="0 0 530 530"><mask id="a" width="531" height="531" x="-1" y="0" fill="#000" maskUnits="userSpaceOnUse"><path fill="#fff" d="M-1 0H530V531H-1z"/><path d="M462.743 113.37C439.232 94.519 412.27 87.4004 382.943 84.5716C363.434 82.6897 357.994 75.6549 349.445 68.7151C298.224 28.0449 241.769 19.8181 180.757 42.148C154.964 51.5882 134.241 68.8545 114.584 87.5436C96.4777 104.758 79.0428 122.832 56.3957 134.477C52.0095 136.732 52.1956 140.805 56.6777 143.342C62.134 146.43 68.2118 147.517 74.4376 148.227C79.5133 148.806 85.0177 148.176 90.1346 151.822C86.8656 155.876 83.9377 159.476 81.0437 163.102C64.4824 183.856 50.2986 206.301 35.025 227.97C32.7101 231.254 27.9804 234.704 30.9508 239.029C33.6976 243.028 39.0803 242.136 43.5153 241.372C48.7684 240.467 53.941 239.101 59.1593 237.985C61.3428 237.518 63.4767 235.818 66.3509 237.917L66.183 238.865C63.9843 251.285 61.7468 263.924 60.8786 276.756C59.8458 292.021 61.4644 307.041 64.6412 321.904C65.8049 327.349 69.042 328.015 72.611 323.791C78.13 317.26 83.2945 310.525 86.606 302.436C89.7766 294.691 94.3801 287.613 98.1839 279.711C103.758 319.203 106.317 352.862 132.425 384.717C136.415 389.586 137.302 388.928 139.075 383.83C139.847 381.613 144.946 354.868 150.569 341.194C154.35 358.297 159.317 374.794 166.303 390.69C172.652 405.137 181.013 418.188 191.889 429.603C193.788 431.597 196.013 433.866 199.106 432.694C202.271 431.494 202.116 428.301 202.152 425.559C202.255 417.858 202.174 410.155 202.253 402.454L202.254 402.359C202.287 399.12 202.32 395.81 205.047 392.766C210.032 400.143 214.684 407.015 219.323 413.895C237.235 440.465 256.904 465.957 269.138 495.994C271.232 501.137 273.869 501.139 277.671 497.081C287.857 486.207 292.483 472.456 297.056 458.86L297.185 458.478C301.638 445.242 302.707 431.382 301.422 417.404C300.912 411.853 300.573 406.285 300.04 399.166C317.61 408.992 331.583 420.83 345.522 432.666C358.116 443.359 368.722 456.03 379.737 468.962C382.758 472.509 385.16 476.5 386.491 469.406C387.118 466.062 388.082 462.079 388.153 456.612C388.64 419.484 378.79 384.789 362.487 351.839C352.726 332.113 341.935 312.898 331.689 293.41C325.113 280.904 320.799 267.614 322.387 253.416C324.618 233.461 336.676 219.818 353.858 211.071C374.569 200.529 397.383 197.276 420.216 195.795C445.02 194.187 469.779 195.325 493.674 203.467C497.565 204.793 499.82 204.121 499.945 199.433C500.867 164.965 490.169 135.358 462.743 113.37Z"/></mask><path fill="#180F23" d="M462.743 113.37C439.232 94.519 412.27 87.4004 382.943 84.5716C363.434 82.6897 357.994 75.6549 349.445 68.7151C298.224 28.0449 241.769 19.8181 180.757 42.148C154.964 51.5882 134.241 68.8545 114.584 87.5436C96.4777 104.758 79.0428 122.832 56.3957 134.477C52.0095 136.732 52.1956 140.805 56.6777 143.342C62.134 146.43 68.2118 147.517 74.4376 148.227C79.5133 148.806 85.0177 148.176 90.1346 151.822C86.8656 155.876 83.9377 159.476 81.0437 163.102C64.4824 183.856 50.2986 206.301 35.025 227.97C32.7101 231.254 27.9804 234.704 30.9508 239.029C33.6976 243.028 39.0803 242.136 43.5153 241.372C48.7684 240.467 53.941 239.101 59.1593 237.985C61.3428 237.518 63.4767 235.818 66.3509 237.917L66.183 238.865C63.9843 251.285 61.7468 263.924 60.8786 276.756C59.8458 292.021 61.4644 307.041 64.6412 321.904C65.8049 327.349 69.042 328.015 72.611 323.791C78.13 317.26 83.2945 310.525 86.606 302.436C89.7766 294.691 94.3801 287.613 98.1839 279.711C103.758 319.203 106.317 352.862 132.425 384.717C136.415 389.586 137.302 388.928 139.075 383.83C139.847 381.613 144.946 354.868 150.569 341.194C154.35 358.297 159.317 374.794 166.303 390.69C172.652 405.137 181.013 418.188 191.889 429.603C193.788 431.597 196.013 433.866 199.106 432.694C202.271 431.494 202.116 428.301 202.152 425.559C202.255 417.858 202.174 410.155 202.253 402.454L202.254 402.359C202.287 399.12 202.32 395.81 205.047 392.766C210.032 400.143 214.684 407.015 219.323 413.895C237.235 440.465 256.904 465.957 269.138 495.994C271.232 501.137 273.869 501.139 277.671 497.081C287.857 486.207 292.483 472.456 297.056 458.86L297.185 458.478C301.638 445.242 302.707 431.382 301.422 417.404C300.912 411.853 300.573 406.285 300.04 399.166C317.61 408.992 331.583 420.83 345.522 432.666C358.116 443.359 368.722 456.03 379.737 468.962C382.758 472.509 385.16 476.5 386.491 469.406C387.118 466.062 388.082 462.079 388.153 456.612C388.64 419.484 378.79 384.789 362.487 351.839C352.726 332.113 341.935 312.898 331.689 293.41C325.113 280.904 320.799 267.614 322.387 253.416C324.618 233.461 336.676 219.818 353.858 211.071C374.569 200.529 397.383 197.276 420.216 195.795C445.02 194.187 469.779 195.325 493.674 203.467C497.565 204.793 499.82 204.121 499.945 199.433C500.867 164.965 490.169 135.358 462.743 113.37Z"/><path stroke="#E6E2FD" stroke-width="60" d="M462.743 113.37C439.232 94.519 412.27 87.4004 382.943 84.5716C363.434 82.6897 357.994 75.6549 349.445 68.7151C298.224 28.0449 241.769 19.8181 180.757 42.148C154.964 51.5882 134.241 68.8545 114.584 87.5436C96.4777 104.758 79.0428 122.832 56.3957 134.477C52.0095 136.732 52.1956 140.805 56.6777 143.342C62.134 146.43 68.2118 147.517 74.4376 148.227C79.5133 148.806 85.0177 148.176 90.1346 151.822C86.8656 155.876 83.9377 159.476 81.0437 163.102C64.4824 183.856 50.2986 206.301 35.025 227.97C32.7101 231.254 27.9804 234.704 30.9508 239.029C33.6976 243.028 39.0803 242.136 43.5153 241.372C48.7684 240.467 53.941 239.101 59.1593 237.985C61.3428 237.518 63.4767 235.818 66.3509 237.917L66.183 238.865C63.9843 251.285 61.7468 263.924 60.8786 276.756C59.8458 292.021 61.4644 307.041 64.6412 321.904C65.8049 327.349 69.042 328.015 72.611 323.791C78.13 317.26 83.2945 310.525 86.606 302.436C89.7766 294.691 94.3801 287.613 98.1839 279.711C103.758 319.203 106.317 352.862 132.425 384.717C136.415 389.586 137.302 388.928 139.075 383.83C139.847 381.613 144.946 354.868 150.569 341.194C154.35 358.297 159.317 374.794 166.303 390.69C172.652 405.137 181.013 418.188 191.889 429.603C193.788 431.597 196.013 433.866 199.106 432.694C202.271 431.494 202.116 428.301 202.152 425.559C202.255 417.858 202.174 410.155 202.253 402.454L202.254 402.359C202.287 399.12 202.32 395.81 205.047 392.766C210.032 400.143 214.684 407.015 219.323 413.895C237.235 440.465 256.904 465.957 269.138 495.994C271.232 501.137 273.869 501.139 277.671 497.081C287.857 486.207 292.483 472.456 297.056 458.86L297.185 458.478C301.638 445.242 302.707 431.382 301.422 417.404C300.912 411.853 300.573 406.285 300.04 399.166C317.61 408.992 331.583 420.83 345.522 432.666C358.116 443.359 368.722 456.03 379.737 468.962C382.758 472.509 385.16 476.5 386.491 469.406C387.118 466.062 388.082 462.079 388.153 456.612C388.64 419.484 378.79 384.789 362.487 351.839C352.726 332.113 341.935 312.898 331.689 293.41C325.113 280.904 320.799 267.614 322.387 253.416C324.618 233.461 336.676 219.818 353.858 211.071C374.569 200.529 397.383 197.276 420.216 195.795C445.02 194.187 469.779 195.325 493.674 203.467C497.565 204.793 499.82 204.121 499.945 199.433C500.867 164.965 490.169 135.358 462.743 113.37Z" mask="url(#a)"/><circle cx="273.867" cy="133.796" r="26.604" fill="#D8D0F7"/><path fill="#D8D0F7" d="M370.738 109.611C438.532 109.61 466.536 141.005 472.953 155.983C426.751 147.253 367.912 156.384 344.812 161.306C344.812 160.022 366.246 109.611 370.738 109.611Z"/><path fill="#7250AE" d="M345.07 160.324C385.496 149.411 467.178 148.281 472.953 155.984C477.053 161.453 480.086 172.994 481.821 179.936C483.04 184.815 480.934 184.223 477.387 183.485C413.218 170.133 353.771 193.881 331.953 205.649C331.953 199.869 339.247 170.183 345.07 160.324Z"/></svg>
