<svg xmlns="http://www.w3.org/2000/svg" fill="none" viewBox="0 0 530 530"><path fill="#180F23" d="M487.987 94.012C461.474 72.755 431.071 64.728 398 61.538c-22-2.122-28.135-10.055-37.775-17.88-57.76-45.863-121.422-55.14-190.223-29.96-29.086 10.646-52.454 30.117-74.62 51.192-20.418 19.411-40.078 39.793-65.617 52.924-4.946 2.543-4.736 7.137.318 9.997 6.153 3.482 13.007 4.708 20.028 5.509 5.723.652 11.93-.057 17.7 4.053-3.686 4.572-6.988 8.632-10.251 12.721-18.676 23.403-34.67 48.713-51.893 73.149-2.611 3.703-7.944 7.593-4.595 12.47 3.098 4.51 9.167 3.505 14.169 2.643 5.923-1.021 11.756-2.562 17.64-3.82 2.463-.527 4.87-2.443 8.11-.077l-.189 1.07c-2.48 14.005-5.002 28.257-5.981 42.728-1.165 17.214.66 34.151 4.242 50.912 1.313 6.139 4.963 6.891 8.988 2.127 6.223-7.365 12.047-14.959 15.781-24.081 3.576-8.733 8.767-16.715 13.056-25.626C83.174 326.123 86.06 364.079 115.5 400c4.5 5.491 5.5 4.749 7.5-1 .87-2.5 6.62-32.66 12.961-48.079 4.264 19.286 9.865 37.889 17.743 55.815 7.159 16.29 16.588 31.008 28.851 43.88 2.142 2.249 4.651 4.808 8.139 3.485 3.569-1.353 3.394-4.953 3.435-8.045.116-8.684.025-17.37.114-26.055l.001-.107c.037-3.652.075-7.385 3.15-10.817 5.621 8.318 10.867 16.067 16.098 23.826 20.198 29.962 42.378 58.708 56.174 92.579 2.362 5.8 5.335 5.803 9.622 1.226 11.487-12.261 16.703-27.768 21.861-43.1l.145-.431c5.021-14.925 6.227-30.554 4.778-46.317-.575-6.26-.957-12.538-1.559-20.567 19.814 11.081 35.57 24.43 51.288 37.777 14.202 12.059 26.163 26.347 38.583 40.93 3.407 4 6.116 8.5 7.616.5.707-3.771 1.794-8.261 1.875-14.427.548-41.867-10.558-80.991-28.943-118.148-11.007-22.245-23.176-43.912-34.73-65.888-7.415-14.103-12.28-29.089-10.49-45.1 2.517-22.502 16.114-37.887 35.489-47.75 23.355-11.889 49.082-15.556 74.83-17.226 27.97-1.814 55.89-.531 82.836 8.651 4.387 1.495 6.93.737 7.072-4.549 1.038-38.868-11.025-72.255-41.952-97.05Z"/><circle cx="275" cy="117.047" r="30" fill="#D8D0F7"/><path fill="#D8D0F7" d="M384.236 89.774c76.449 0 108.028 35.402 115.264 52.292-52.1-9.845-118.45.452-144.5 6.002 0-1.448 24.171-58.294 29.236-58.294Z"/><path fill="#7250AE" d="M355.292 146.961c45.586-12.306 137.695-13.58 144.208-4.894 4.624 6.167 8.044 19.182 10 27.01 1.375 5.502-1 4.834-5 4.002-72.361-15.057-139.397 11.723-164 24.994 0-6.518 8.225-39.994 14.792-51.112Z"/></svg>
